# xmcd
#
# Track frame offsets:
#	150
#	15840
#	31832
#	54588
#	66240
#	85238
#	100838
#	118075
#	138360
#	154683
#	169863
#	199208
#	218915
#
# Disc length: 3103 seconds
#
# Revision: 1
# Processed by: cddbd v1.5.1PL0 Copyright (c) Steve Scherf et al.
# Submitted via: audiograbber 1.83.01
#
DISCID=ab0c1d0d
DTITLE=Havenzangers - De Allerbeste Gouwe
DYEAR=1900
DGENRE=
TTITLE0=Oh Mona!
TTITLE1=M'n Eigen Feesie
TTITLE2=De Countrydans
TTITLE3=Ik Zie 'n Pils
TTITLE4=Medley: Het Levens Is Goed In M'n Brabantse Land
TTITLE5=Ik Kan Geen Kikker Van De Kant Afduwen
TTITLE6=Medley: Aan Het Strand Stil En Verlaten
TTITLE7=Medley: We Gaan Door Tot Het Gaatje
TTITLE8=Ik Sta Liever Op De Ski
TTITLE9=Gisteren Ging 't Nog
TTITLE10=De Cowboydans
TTITLE11=Medley: Bestel Mar
TTITLE12='s Nachts Na Tweeën
EXTD=
EXTT0=
EXTT1=
EXTT2=
EXTT3=
EXTT4=
EXTT5=
EXTT6=
EXTT7=
EXTT8=
EXTT9=
EXTT10=
EXTT11=
EXTT12=
PLAYORDER=
